<svg xmlns="http://www.w3.org/2000/svg" version="1.1" xmlns:xlink="http://www.w3.org/1999/xlink" xmlns:svgjs="http://svgjs.dev/svgjs" width="1500" height="1500" viewBox="0 0 1500 1500"><rect width="1500" height="1500" fill="#000000"></rect><g transform="matrix(0.6666666666666666,0,0,0.6666666666666666,250.00017081513073,187.66666666666674)"><svg viewBox="0 0 320 360" data-background-color="#000000" preserveAspectRatio="xMidYMid meet" height="1687" width="1500" xmlns="http://www.w3.org/2000/svg" xmlns:xlink="http://www.w3.org/1999/xlink"><g id="tight-bounds" transform="matrix(1,0,0,1,0.00005466084189720277,0)"><svg viewBox="0 0 320 360" height="360" width="320"><g><svg></svg></g><g><svg viewBox="0 0 320 360" height="360" width="320"><g><path transform="translate(-119.39272,-98.31927) scale(5.58313,5.58313)" d="M36.7 23.5c0-0.2 0.1-0.4 0.3-0.4 0.2 0 0.4 0.1 0.4 0.4 0.1 0 0.3 0 0.4-0.1 0.4 0 0.8-0.1 1.1 0 0.3 0.1 0.5 0.1 0.8 0.2 0.3 0.1 0.5 0 0.7-0.1 0.4-0.1 0.7-0.3 1.1-0.4 0.2-0.1 0.3-0.1 0.5-0.1 0.2-0.1 0.4-0.1 0.7-0.2 0.5-0.1 1-0.2 1.4-0.4 0.4-0.2 0.8-0.2 1.2-0.3 0.2 0 0.3-0.1 0.5-0.2 0.1 0 0.1-0.1 0.2-0.2 0.2-0.1 0.3-0.2 0.5-0.1 0.1 0.1 0.3 0.1 0.4 0h0.1c0.6 0 1.2-0.1 1.9 0 0.1 0 0.2 0 0.2 0 0.3-0.2 0.7-0.2 1.1-0.2 0.1 0 0.3 0 0.4 0h0.1c0.4 0 0.8 0 1.1 0.1 0.3 0 0.5 0.1 0.8 0.2 0.3 0 0.5 0 0.8 0.1 0.2 0 0.4 0 0.6 0 0.1 0 0.2 0 0.2 0 0.4 0.1 0.8 0.1 1.2 0.1 0.3 0.1 0.6 0.2 1 0.2 0.1 0 0.2 0 0.3 0 0.1 0 0.2 0.1 0.3 0.1l0.1 0.1c0.4 0 0.7 0.2 1.1 0.2 0.1 0 0.3 0 0.4 0.1 0.3 0.2 0.7 0.3 1.1 0.3 0.2 0 0.3 0.1 0.4 0.2 0.3 0.1 0.5 0.2 0.8 0.3 0.2 0.1 0.4 0 0.6 0.1 0.3 0.1 0.7 0.2 1 0.5 0.2 0.2 0.4 0.2 0.7 0.4 0.1 0 0.2 0.1 0.3 0.2 0.3 0.2 0.6 0.4 0.9 0.5 0.1 0 0.2 0.1 0.3 0.1 0.3 0.2 0.6 0.5 1 0.7 0.2 0.1 0.3 0.2 0.5 0.3h0.1c0.3 0.3 0.7 0.5 1 0.8 0.3 0.3 0.5 0.5 0.9 0.7 0 0 0 0 0 0.1 0.1 0.2 0.2 0.3 0.4 0.4 0.2 0.1 0.3 0.2 0.4 0.3 0.3 0.2 0.6 0.4 0.8 0.6 0.1 0.1 0.2 0.2 0.4 0.4 0.1 0.1 0.2 0.2 0.3 0.2 0.4 0.1 0.6 0.4 0.9 0.7 0.2 0.2 0.5 0.5 0.7 0.7 0.1 0.1 0.2 0.3 0.3 0.5 0.2 0.6 0.5 1.2 0.8 1.7 0 0 0 0.1 0.1 0.2v0.1c0.2 0.2 0.3 0.5 0.5 0.7 0.1 0.1 0.1 0.2 0.2 0.3 0.2 0.3 0.3 0.7 0.5 1 0.3 0.5 0.5 1 0.7 1.5v0.1c0.1 0.2 0.2 0.4 0.3 0.7 0 0.2 0.2 0.4 0.3 0.7 0.1 0.5 0.4 1 0.5 1.6 0 0.1 0.1 0.2 0.1 0.4 0.1 0.3 0.2 0.6 0.3 0.9 0 0.1 0.1 0.2 0.2 0.3 0.2 0.2 0.2 0.4 0.2 0.6-0.1 0.4 0 0.8 0.1 1.2 0 0.1 0 0.2 0 0.4 0.1 0.4 0.2 0.9 0.2 1.3 0 0.1 0 0.3 0 0.4 0 0.3 0.1 0.6 0.3 0.9 0 0.1 0.1 0.1 0.1 0.1 0.1 0.1 0.2 0.3 0.3 0.4 0.1 0.1 0.1 0.1 0.2 0.2 0.2 0.2 0.3 0.4 0.3 0.7 0 0.1-0.1 0.3-0.1 0.4 0 0.1 0 0.3 0.1 0.4 0.1 0.1 0.1 0.2 0.1 0.3 0 0.1-0.1 0.2-0.2 0.2v0c-0.1 0.3-0.5 0.4-0.6 0.7-0.1 0.4-0.2 0.8-0.3 1.2-0.1 0.3-0.1 0.5-0.1 0.8 0 0.3-0.1 0.5-0.1 0.8-0.1 0.4-0.2 0.8-0.3 1.2 0 0.2-0.1 0.4-0.1 0.6 0.1 0.1 0.2 0.2 0.3 0.2 0.2 0.2 0.4 0.4 0.6 0.6 0.1 0.1 0.1 0.2 0 0.2-0.1 0.1-0.2 0.1-0.3 0.1-0.1-0.1-0.3-0.2-0.4-0.2-0.1-0.1-0.3-0.2-0.5-0.1 0 0.2-0.1 0.4-0.1 0.5-0.1 0.2-0.2 0.5-0.2 0.7-0.1 0.4-0.3 0.7-0.4 1.1-0.2 0.5-0.4 0.9-0.6 1.3-0.1 0.2-0.2 0.4-0.3 0.6v0c0 0.3-0.3 0.6-0.4 0.9-0.2 0.4-0.4 0.8-0.6 1.3-0.1 0.2-0.2 0.4-0.3 0.5-0.2 0.5-0.4 0.9-0.7 1.3-0.2 0.3-0.4 0.5-0.6 0.6-0.2 0.2-0.4 0.4-0.6 0.6-0.1 0.1-0.2 0.2-0.3 0.3-0.1 0.1-0.1 0.1-0.2 0.2-0.2 0.3-0.5 0.5-0.7 0.8-0.2 0.2-0.3 0.4-0.6 0.6-0.2 0.2-0.4 0.5-0.7 0.6-0.1 0.1-0.2 0.3-0.3 0.4-0.1 0.1-0.2 0.3-0.3 0.4 0 0.2 0.1 0.4 0.1 0.5 0 0.3-0.3 0.4-0.5 0.2-0.3-0.2-0.3-0.2-0.6 0-0.3 0.2-0.6 0.5-1 0.6-0.1 0-0.1 0.1-0.2 0.1-0.2 0.1-0.3 0.3-0.5 0.4-0.2 0.2-0.5 0.3-0.7 0.5-0.1 0.1-0.2 0.1-0.3 0.2-0.3 0.2-0.6 0.3-0.9 0.6-0.1 0.1-0.2 0.1-0.3 0.2 0 0.1 0 0.1 0 0.2 0 0.2-0.2 0.4-0.5 0.3-0.3-0.1-0.5 0-0.8 0-0.3 0.1-0.6 0.3-0.9 0.4-0.1 0-0.2 0.1-0.3 0.2-0.3 0.2-0.6 0.3-0.9 0.4-0.2 0-0.4 0.2-0.6 0.2-0.1 0-0.2 0.1-0.3 0.1h-0.1c-0.4 0.3-0.8 0.5-1.2 0.8-0.1 0-0.1 0.1-0.2 0.2-0.1 0.2-0.2 0.3-0.4 0.3-0.5 0-0.7 0.4-0.6 0.8 0 0.1 0.1 0.2 0.1 0.3 0.1 0.2 0 0.4-0.1 0.5-0.1 0.1-0.4 0.1-0.5-0.1-0.2-0.2-0.3-0.4-0.4-0.7-0.1-0.2-0.3-0.4-0.5-0.5-0.2-0.1-0.4-0.1-0.6 0-0.1 0-0.1 0.1-0.2 0.1-0.2 0.2-0.5 0.3-0.8 0.2-0.1 0-0.3 0-0.3 0.1-0.1 0.1-0.1 0.3 0 0.4 0.2 0.2 0.1 0.4 0.1 0.7 0 0.4-0.3 0.6-0.7 0.4-0.1-0.1-0.2-0.1-0.3-0.2-0.1 0-0.1-0.1-0.1-0.2-0.1-0.1-0.1-0.3-0.2-0.5-0.2 0.1-0.4 0.1-0.6 0.2-0.1 0-0.2 0.1-0.3 0.1-0.3 0-0.4 0-0.5-0.3-0.1-0.3-0.3-0.3-0.5-0.4-0.4-0.1-0.9-0.1-1.3-0.3h-0.1c-0.4-0.3-0.8-0.3-1.3-0.3-0.3 0-0.6 0.1-0.9 0.1-0.3 0-0.5 0.1-0.7 0.3-0.1 0.1-0.2 0.2-0.3 0.2-0.1-0.1-0.1-0.2-0.2-0.3v-0.1c0-0.1-0.1-0.2-0.2-0.1-0.2 0.1-0.4-0.1-0.6-0.2-0.1-0.1-0.3-0.3-0.3-0.5-0.1-0.1-0.2-0.2-0.3-0.2-0.2 0-0.5-0.1-0.7-0.1-0.1 0-0.2 0-0.2-0.1-0.1-0.1-0.2-0.1-0.4-0.1-0.1 0-0.1-0.1-0.2-0.1 0.2 0.2 0.3 0.4 0.4 0.6 0 0.1 0.1 0.1 0.1 0.2 0.1 0.2 0 0.3-0.3 0.3-0.2 0-0.2 0-0.3 0.1 0 0.2 0 0.3 0 0.5 0 0.1 0 0.2-0.2 0.3 0 0-0.1 0-0.1 0.1-0.1 0.1-0.1 0.2 0 0.3 0.3 0.2 0.5 0.3 0.8 0.4 0.3 0 0.3 0.2 0.4 0.4 0.1 0.2 0 0.3-0.1 0.5-0.2 0.2-0.4 0.4-0.6 0.6-0.3 0.1-0.5 0.4-0.8 0.4-0.2 0-0.4-0.1-0.5-0.3-0.1-0.5-0.1-0.9 0.1-1.4 0-0.1 0.1-0.2 0-0.3-0.9 0-0.9-0.2-0.9-0.3 0-0.2 0.1-0.3 0.1-0.5 0.1-0.2 0-0.3-0.3-0.4-0.1 0-0.2 0-0.3 0-0.1 0-0.1-0.1-0.3-0.1 0.2-0.1 0.3-0.1 0.5-0.2-0.1-0.4-0.2-0.7-0.5-0.9-0.1-0.1-0.2-0.2-0.2-0.4 0-0.3-0.2-0.5-0.3-0.7-0.2-0.3-0.6-0.4-0.9-0.4-0.3-0.1-0.5-0.1-0.8-0.2-0.3-0.1-0.6-0.4-0.9-0.5-0.1-0.1-0.2-0.2-0.4-0.3-0.4-0.2-0.7-0.5-1-0.8-0.2-0.1-0.3-0.3-0.5-0.4-0.2-0.2-0.3-0.4-0.5-0.5-0.2-0.2-0.4-0.4-0.7-0.6-0.3-0.2-0.5-0.5-0.8-0.8-0.2-0.3-0.5-0.5-0.8-0.7-0.1 0-0.2 0-0.3 0-0.1 0-0.2 0.1-0.3 0.1-0.3 0.1-0.5 0.3-0.8 0.4 0.1-0.1 0.1-0.1 0-0.3-0.1-0.1-0.2-0.2-0.3-0.2-0.2 0-0.4 0-0.6 0-0.4 0-0.8 0.1-1.2 0.1-0.3 0-0.7 0.1-1 0.2 0.1 0.2 0.1 0.3 0.2 0.5-0.2 0.1-0.4 0.1-0.6 0.1-0.1 0-0.3 0.1-0.4 0.2-0.1 0-0.1 0.1-0.2 0-0.2-0.1-0.4 0-0.6 0.1h-0.1c0 0 0-0.1 0.1-0.1 0.1-0.1 0.2-0.2 0.3-0.3 0.1-0.1 0.2-0.1 0.4-0.2-0.1-0.1-0.1-0.2-0.1-0.2-0.1-0.1-0.2-0.1-0.3 0-0.1 0.1-0.2 0.2-0.3 0.3-0.1 0.1-0.2 0.1-0.3 0-0.1-0.1-0.1-0.2 0-0.3 0-0.1 0.1-0.2 0.2-0.3 0.1-0.1 0.1-0.2 0.2-0.3-0.2-0.2-0.3-0.4-0.5-0.5-0.3-0.2-0.6-0.5-0.8-0.8-0.2-0.4-0.5-0.7-0.9-0.9-0.1-0.1-0.2-0.2-0.3-0.3-0.1-0.1-0.1-0.1-0.2-0.2-0.3 0.1-0.5 0.3-0.8 0.4-0.1 0-0.1 0.1-0.2 0.2-0.1 0.2-0.3 0.2-0.5 0.2-0.1 0-0.2-0.1-0.1-0.2 0.1-0.2 0.2-0.4 0.5-0.3 0 0 0.1 0 0.1-0.1 0.2-0.2 0.4-0.5 0.7-0.7-0.1-0.3-0.3-0.5-0.4-0.7-0.1-0.1-0.1-0.2-0.1-0.4 0-0.1 0-0.1-0.1-0.2 0 0-0.1 0-0.2 0.1-0.1 0.1-0.3 0.2-0.5 0 0-0.1 0-0.2 0.1-0.3l0.1-0.1c0.3-0.1 0.3-0.4 0.3-0.7v-0.1c-0.1-0.2-0.1-0.3 0.1-0.5 0.3-0.2 0.6-0.6 0.7-0.9 0.1-0.2 0.3-0.3 0.5-0.5 0.2-0.2 0.4-0.4 0.5-0.7h0.1c0.4 0.1 0.5-0.2 0.7-0.5 0-0.1 0-0.2 0.1-0.2 0.2-0.2 0.2-0.4 0.1-0.7 0-0.1-0.1-0.3-0.1-0.4 0-0.1 0-0.1-0.1-0.2-0.3-0.2-0.3-0.4 0-0.6 0.2-0.1 0.2-0.3 0.3-0.4 0.1-0.2 0.1-0.4 0.1-0.7-0.1-0.3-0.1-0.7-0.2-1-0.1-0.4-0.2-0.9-0.3-1.3 0-0.1 0-0.1 0-0.2 0-0.3 0-0.5-0.1-0.8-0.1-0.1-0.1-0.3-0.1-0.4-0.1-0.3-0.2-0.5-0.5-0.6-0.3-0.2-0.7-0.3-1-0.5-0.1-0.1-0.2 0-0.3 0.1-0.1 0.2-0.3 0.4-0.4 0.6-0.1 0.1-0.2 0.3-0.3 0.5-0.2 0.2-0.6 0.4-0.9 0.1-0.1-0.2-0.2-0.3 0-0.5 0.2-0.3 0.4-0.6 0.7-0.8 0.1-0.1 0.2-0.3 0.3-0.4 0.1-0.2 0.1-0.4 0.1-0.6-0.1-0.4-0.2-0.8-0.2-1.3 0-0.5 0-0.9 0.1-1.4 0.1-0.2 0.1-0.5 0.2-0.7 0-0.1 0.1-0.3 0.2-0.4 0.2-0.2 0.4-0.4 0.5-0.7 0.1-0.3 0.3-0.6 0.3-0.9 0-0.1 0.1-0.2 0.1-0.3 0-0.1 0.1-0.3 0.1-0.4-0.1-0.3 0-0.5 0.1-0.7 0.1-0.2 0.2-0.5 0.3-0.7 0.2-0.4 0.2-0.9 0.6-1.3 0.1-0.2 0.2-0.4 0.3-0.6 0.1-0.4 0.3-0.7 0.5-1 0.1-0.1 0.1-0.1 0.1-0.2 0.1-0.3 0.3-0.6 0.5-0.9 0.2-0.3 0.2-0.6 0.3-0.9 0-0.1 0-0.2 0.1-0.3 0.3-0.3 0.2-0.7 0.1-1.1-0.2-0.5-0.3-1-0.2-1.5 0-0.1 0-0.2 0.1-0.2 0.1-0.2 0.1-0.3 0.2-0.5v-0.1c0.2-0.2 0.4-0.5 0.7-0.6 0.4-0.2 0.8-0.3 1.3-0.4 0.4 0 0.8-0.2 1.1-0.6 0-0.1 0.1-0.1 0.2-0.2l0.1-0.1c0.1-0.2 0.2-0.3 0.3-0.4 0.2-0.2 0.4-0.5 0.6-0.7 0.2-0.2 0.4-0.5 0.7-0.8l0.1-0.1c0.2-0.2 0.4-0.4 0.6-0.5 0.2-0.2 0.4-0.4 0.6-0.6 0.2-0.2 0.3-0.4 0.5-0.6 0.2-0.1 0.4-0.3 0.6-0.5 0.2-0.2 0.4-0.4 0.5-0.5 0.2-0.2 0.5-0.4 0.7-0.5 0.2-0.1 0.4-0.2 0.5-0.5 0.1-0.3 0.2-0.5 0.3-0.8 0-0.2 0.1-0.4 0.2-0.6 0.1 0 0.2 0 0.4-0.1-0.1-0.1-0.2-0.1-0.2-0.2 0-0.1 0.1-0.2 0.1-0.2 0-0.1 0.1-0.2 0.1-0.3 0 0 0.1 0 0.1-0.1 0 0 0.1 0 0.1-0.1-0.2 0.1-0.3 0-0.4-0.1 0.1 0.1 0.2 0.1 0.4 0.2 0 0 0.1 0 0.1-0.1 0-0.1 0-0.2 0-0.2 0 0-0.1 0-0.2 0-0.1 0-0.2 0.1-0.3 0.1zM54 70.5c0-0.1-0.1-0.1-0.1-0.2-0.1-0.2 0-0.3 0.1-0.4 0.1-0.1 0.2-0.1 0.4-0.1 0.2 0.1 0.3 0.2 0.3 0.4 0 0.1 0 0.3 0 0.4 0.1 0.4 0.1 0.4 0.5 0.4 0.2 0 0.4 0 0.6 0 0.4-0.1 0.8-0.3 1.2-0.4 0.4-0.1 0.8-0.2 1.2-0.3 0.1 0 0.2 0 0.4 0 0.4 0.1 0.7 0 1-0.2 0.1-0.1 0.3-0.1 0.4-0.2 0.2-0.1 0.4-0.1 0.6-0.2 0.5-0.3 1-0.5 1.4-0.8 0.3-0.2 0.6-0.4 0.9-0.6 0.3-0.2 0.6-0.4 0.9-0.6 0.2-0.1 0.5-0.3 0.7-0.5 0.4-0.3 0.7-0.6 1.1-0.8 0.2-0.1 0.3-0.2 0.4-0.3 0.2-0.1 0.3-0.3 0.5-0.4 0.1-0.1 0.2-0.2 0.4-0.3 0.1-0.1 0.1-0.1 0.1-0.2 0.3-0.2 0.6-0.6 0.8-0.9 0.2-0.2 0.4-0.4 0.6-0.7 0.3-0.3 0.5-0.7 0.8-1.1 0.2-0.2 0.4-0.5 0.5-0.7 0.2-0.4 0.4-0.8 0.7-1.1v-0.1c0.2-0.4 0.4-0.8 0.6-1.2 0.3-0.5 0.5-1.1 0.8-1.6 0.1-0.2 0.2-0.4 0.2-0.6 0.2-0.4 0.3-0.8 0.4-1.2 0-0.1 0-0.1 0.1-0.2 0.3-0.6 0.5-1.2 0.6-1.9 0.1-0.4 0.2-0.8 0.3-1.2 0.2-0.6 0.2-1.1 0.3-1.7 0.1-0.4 0.1-0.9 0.1-1.3 0.1-0.6 0.1-1.3 0-1.9 0-0.5-0.1-1.1-0.1-1.6 0-0.5-0.1-0.9-0.2-1.4-0.1-0.5-0.2-0.9-0.3-1.4-0.2-0.4-0.3-0.8-0.4-1.3-0.1-0.4-0.3-0.7-0.3-1.1 0-0.3-0.1-0.6-0.4-0.7-0.3-0.1-0.5-0.2-0.8-0.4-0.6-0.4-0.9-0.9-0.8-1.5 0-0.3 0.1-0.7 0.2-1 0.1-0.3 0.2-0.6 0-0.8-0.1-0.3-0.3-0.5-0.4-0.7-0.2-0.3-0.3-0.5-0.5-0.7-0.2-0.4-0.4-0.8-0.7-1.1-0.4-0.5-0.7-1-1.2-1.4l-0.1-0.1c-0.3-0.4-0.6-0.8-1-1.1-0.2-0.2-0.4-0.4-0.6-0.5-0.1-0.1-0.2-0.2-0.4-0.3-0.3-0.2-0.6-0.3-0.8-0.5-0.3-0.3-0.7-0.5-1-0.7 0 0-0.1 0-0.1-0.1-0.4-0.2-0.7-0.3-1.1-0.5-0.4-0.2-0.8-0.3-1.2-0.3-0.1 0-0.1 0-0.2 0-0.1-0.1-0.3-0.1-0.4-0.1-0.1 0-0.1 0-0.2 0-0.2-0.1-0.5 0-0.7 0-0.4 0.1-0.8 0.1-1.2-0.1-0.5-0.2-0.9-0.4-1.3-0.6-0.3-0.2-0.5-0.4-0.8-0.6-0.6-0.5-1.2-1.1-1.9-1.6 0.1-0.5-0.1-0.6-0.5-0.6-0.2 0-0.4 0.1-0.6 0.2-0.1 0.1-0.1 0.1-0.2 0.2-0.3 0.2-0.5 0.5-0.8 0.7-0.5 0.3-0.7 0.2-1.1 0-0.1-0.1-0.2-0.2-0.3-0.3-0.2-0.2-0.4-0.5-0.5-0.7-0.2-0.4-0.6-0.4-1-0.4-0.2 0-0.5 0.1-0.7 0.1-0.4 0-0.8 0.2-1 0.5-0.2 0.3-0.4 0.6-0.7 0.9-0.1 0.1-0.3 0.2-0.4 0.4-0.2 0.2-0.4 0.2-0.6 0-0.1-0.1-0.2-0.1-0.3-0.2-0.1 0.1-0.2 0.2-0.2 0.3-0.1 0.2-0.2 0.4-0.3 0.7-0.1 0.3-0.3 0.6-0.5 0.8-0.1 0.1-0.1 0.1-0.2 0.2-0.1 0.2-0.4 0.3-0.6 0.3-0.2 0.2-0.4 0.5-0.5 0.7-0.1 0.2-0.2 0.4-0.3 0.7-0.1 0.1-0.1 0.3-0.2 0.4-0.1 0.2-0.1 0.3-0.1 0.5 0.1 0.3-0.1 0.4-0.4 0.5-0.2 0-0.2 0-0.3 0.2 0 0.3 0.1 0.5 0.2 0.8 0.1 0.1 0.2 0.3 0.2 0.4 0 0.2 0.1 0.3 0.3 0.4 0.1 0.1 0.2 0.2 0.3 0.2 0.1 0 0.1 0.1 0.2 0.1 0.1 0.1 0.2 0 0.2-0.1 0.1-0.3 0.2-0.6 0.2-0.9 0.1-0.4 0.1-0.7 0.2-1.1 0.1-0.2 0.2-0.3 0.3-0.4 0 0 0.1 0 0.2 0v0.1c-0.1 0.5-0.3 1.1-0.4 1.6-0.1 0.2-0.1 0.4-0.2 0.6 0 0.1-0.1 0.2-0.2 0.2-0.2 0.1-0.4 0.2-0.6 0.2-0.1 0-0.2 0-0.3 0-0.2-0.1-0.4-0.3-0.6-0.4-0.1-0.1-0.2-0.2-0.3-0.3-0.1-0.2-0.2-0.4-0.3-0.6-0.1-0.2-0.2-0.3-0.4-0.4-0.1-0.1-0.2-0.1-0.3-0.2-0.2-0.2-0.4-0.3-0.7-0.3-0.1 0-0.3 0-0.4 0-0.1 0-0.3 0.1-0.4 0.2-0.2 0.1-0.3 0.1-0.5 0-0.5-0.2-1-0.1-1.5 0.1-0.2 0.1-0.4 0.2-0.6 0.2-0.5 0-0.9 0-1.4 0-0.5 0-0.9-0.1-1.4-0.2-0.2 0-0.4 0-0.6 0-0.4 0.1-0.5 0.4-0.4 0.8 0.1 0.4 0.2 0.9 0.2 1.3 0 0.3 0 0.6 0 0.9 0 0.2 0 0.3 0 0.5 0 0.3-0.1 0.6-0.1 0.9-0.1 0.6-0.4 1.1-0.8 1.5-0.3 0.3-0.7 0.6-1.1 0.7-0.2 0.1-0.4 0.2-0.7 0.3-0.5 0.2-0.9 0.6-1.2 1.1-0.1 0.2-0.2 0.4-0.3 0.6-0.2 0.3-0.3 0.5-0.5 0.8-0.1 0.2-0.3 0.4-0.4 0.6-0.1 0.2-0.3 0.3-0.3 0.5-0.2 0.4-0.3 0.8-0.5 1.2-0.1 0.2-0.1 0.5-0.2 0.7-0.2 0.4-0.2 0.8-0.2 1.3 0 0.1 0 0.2 0 0.4 0 0.5-0.1 1.1-0.1 1.6 0 0.5 0 1 0.1 1.5 0 0.2 0 0.5 0 0.7 0 0.4 0.1 0.9 0.1 1.3 0 0.4 0 0.9 0.2 1.3v0.1c0.1 0.4 0.1 0.8 0.2 1.2 0 0.1 0 0.2 0.1 0.3 0.2 0.6 0.3 1.1 0.5 1.7 0.1 0.4 0.3 0.8 0.4 1.2 0.1 0.4 0.5 0.8 0.6 1.3v0c0.3 0.6 0.6 1.2 1 1.8 0.1 0.2 0.3 0.4 0.4 0.6 0.2 0.3 0.3 0.6 0.5 0.8 0.1 0.2 0.3 0.4 0.4 0.5 0.1 0.2 0.2 0.4 0.4 0.6 0.2 0.2 0.4 0.5 0.6 0.7 0.3 0.5 0.7 0.9 1.1 1.2 0.2 0.2 0.4 0.3 0.6 0.5 0.1 0.1 0.2 0.1 0.2 0.2 0.1 0.1 0.2 0.2 0.4 0.3 0.8 0.4 1.4 1 2.1 1.6 0.3 0.3 0.6 0.6 1 0.8 0.4 0.3 0.7 0.6 1.2 0.7 0 0 0.1 0 0.1 0.1 0.2 0.2 0.5 0.3 0.7 0.4 0.4 0.2 0.9 0.4 1.3 0.6 0.1 0.1 0.3 0.1 0.4 0.2 0.3 0.1 0.6 0.2 0.9 0.3 0.3 0.1 0.5 0.2 0.8 0.2h0.1c0.2 0.1 0.3 0.1 0.5 0 0.1 0 0.2 0 0.2 0.1 0 0.1 0.1 0.1 0.2 0.1 0.1 0 0.2 0 0.4 0 0.1-0.1 0.1-0.2 0.2-0.4 0.1 0.1 0.2 0.1 0.2 0.1 0.1 0.2 0.3 0.2 0.5 0.2h0.1c0.2 0 0.3 0 0.4-0.1 0-0.1 0.2-0.1 0.3-0.1 0.3 0.1 0.6 0.1 0.9 0.2 0.2 0.1 0.5 0.1 0.6-0.1 0.1-0.1 0.2-0.2 0.4-0.1 0.2 0.1 0.3 0.1 0.5 0 0.1 0 0.2 0 0.2 0 0.3 0.1 0.5 0.1 0.8 0.2 0.4 0.1 0.4 0.1 0.7-0.2 0.1-0.1 0.3-0.1 0.4 0 0.1 0.2 0.1 0.3 0.1 0.5 0.1 0 0.1 0 0.2-0.1 0-0.2 0.1-0.2 0.3-0.3 0.1 0.1 0.1 0.1 0.2 0.1 0.2 0.2 0.3 0.2 0.4-0.1 0-0.1 0-0.2 0.1-0.2 0.1 0 0.2 0.1 0.2 0.1 0.1 0.2 0.3 0.3 0.4 0.5 0.2 0.2 0.5 0.2 0.6 0 0.1-0.1 0.2-0.1 0.3-0.1 0-0.1 0-0.2 0-0.3 0.3 0.2 0.2 0.2 0.1 0.2zM37.4 23.8c0.3 0.1 0.5 0.1 0.6-0.1-0.2 0.1-0.4-0.1-0.6 0.1z" fill="#48937e" fill-rule="nonzero" stroke="none" stroke-width="1" stroke-linecap="butt" stroke-linejoin="miter" stroke-miterlimit="10" stroke-dasharray="" stroke-dashoffset="0" font-family="none" font-weight="none" font-size="none" text-anchor="none" style="mix-blend-mode: normal" data-fill-palette-color="tertiary"></path></g><g transform="matrix(1,0,0,1,64,155.93594089109666)"><svg viewBox="0 0 192 48.12811821780665" height="48.12811821780665" width="192"><g><svg viewBox="0 0 192 48.12811821780665" height="48.12811821780665" width="192"><g><svg viewBox="0 0 192 48.12811821780665" height="48.12811821780665" width="192"><g transform="matrix(1,0,0,1,0,29.089524408100882)"><svg viewBox="0 0 192 19.03859380970577" height="19.03859380970577" width="192"><g id="textblocktransform"><svg viewBox="0 0 192 19.03859380970577" height="19.03859380970577" width="192" id="textblock"><g><svg viewBox="0 0 192 19.03859380970577" height="19.03859380970577" width="192"><g transform="matrix(1,0,0,1,0,0)"><svg width="192" viewBox="2.44 -35.23 511.08 50.67999999999999" height="19.03859380970577" data-palette-color="#48937e"><path d="M12.01-31.81L12.01-31.81Q10.47-31.81 8.79-31.77 7.1-31.74 5.96-31.67L5.96-31.67Q6.1-24.63 6.1-19.02L6.1-19.02 23.8-18.9Q24.56-18.9 24.94-18.4 25.32-17.9 25.32-17.31L25.32-17.31Q25.32-16.7 24.94-16.21 24.56-15.72 23.78-15.72L23.78-15.72 6.08-15.84Q6.05-12.6 5.98-10.01 5.91-7.42 5.81-5.49L5.81-5.49 5.69-3.15Q13.7-3.17 18.76-3.28 23.83-3.39 26-3.56L26-3.56Q26.73-3.64 27.12-3.09 27.51-2.54 27.51-1.95L27.51-1.95Q27.51-1.39 27.17-0.92 26.83-0.44 26.12-0.39L26.12-0.39Q23.73-0.17 18.2-0.07 12.67 0.02 4.03 0.02L4.03 0.02Q3.42 0.02 2.93-0.46 2.44-0.95 2.44-1.64L2.44-1.64Q2.44-1.9 2.49-3.31 2.54-4.71 2.61-6.81 2.69-8.91 2.76-11.27 2.83-13.62 2.88-15.83 2.93-18.04 2.93-19.68L2.93-19.68Q2.93-22.73 2.84-26.11 2.76-29.49 2.76-33.18L2.76-33.18Q2.76-33.79 3.21-34.25 3.66-34.72 4.25-34.74L4.25-34.74 6.01-34.86Q8.11-34.99 10.35-35.01 12.6-35.03 14.99-34.96L14.99-34.96Q24.39-34.67 28.32-32.91L28.32-32.91Q29.25-32.5 29.22-31.37L29.22-31.37Q29.22-30.76 28.82-30.31 28.42-29.86 27.73-29.86L27.73-29.86Q27.39-29.86 27.03-30.03L27.03-30.03Q22.97-31.81 12.01-31.81ZM35.74-25.15L35.74-25.15Q36.45-25.15 36.91-24.58L36.91-24.58Q38.67-22.46 39.48-18.04L39.48-18.04Q42.8-24.05 48.04-24.8L48.04-24.8Q48.87-24.93 49.68-24.93L49.68-24.93Q52.61-24.93 54.86-23.58 57.1-22.24 58.54-20.04 59.98-17.85 60.5-15.31L60.5-15.31Q60.84-13.67 60.84-11.96L60.84-11.96Q60.84-6.57 57.39-0.56L57.39-0.56Q56.96 0.2 56.05 0.2L56.05 0.2Q55.3 0.2 54.7-0.52 54.1-1.25 54.64-2.15L54.64-2.15Q57.66-7.42 57.66-11.99L57.66-11.99Q57.66-13.35 57.39-14.65L57.39-14.65Q57-16.53 55.97-18.14 54.93-19.75 53.33-20.74 51.73-21.73 49.66-21.73L49.66-21.73Q49.09-21.73 48.51-21.66L48.51-21.66Q46.09-21.31 44.38-19.53 42.67-17.75 41.64-15.22 40.6-12.7 40.13-10.08L40.13-10.08Q40.13-9.77 40.13-9.45L40.13-9.45Q40.13-5.93 39.77-2.37L39.77-2.37 39.67-1.42Q39.6-0.73 39.13-0.4 38.67-0.07 38.13-0.07L38.13-0.07Q37.55-0.07 37.05-0.44 36.55-0.81 36.52-1.54L36.52-1.54Q36.47-2.64 36.47-3.69L36.47-3.69Q36.47-7.28 36.96-10.3L36.96-10.3Q36.86-15.92 36.08-18.73L36.08-18.73Q35.32-21.51 34.69-22.29L34.69-22.29Q34.1-23.02 34.1-23.58L34.1-23.58Q34.1-24.29 34.62-24.72 35.13-25.15 35.74-25.15ZM74.8 0.29L74.8 0.29Q72.48 0.29 70.98-1.29 69.48-2.88 68.75-5.32 68.01-7.76 68.01-10.33L68.01-10.33Q68.01-13.99 69.53-17.43L69.53-17.43Q71.75-22.49 76.46-24.17L76.46-24.17Q78.19-24.8 79.9-24.8L79.9-24.8Q83.42-24.8 85.35-22.49 87.28-20.17 87.52-16.72L87.52-16.72Q87.62-16.24 87.74-14.98 87.86-13.72 87.96-12.19 88.06-10.67 88.12-9.25 88.18-7.84 88.18-7.01L88.18-7.01Q88.18 1.46 85.66 6.69L85.66 6.69Q84.25 9.59 81.78 11.68 79.32 13.77 75.53 13.77L75.53 13.77Q74.82 13.77 74.07 13.67L74.07 13.67Q70.26 13.23 66.47 10.91L66.47 10.91Q65.74 10.47 65.74 9.57L65.74 9.57Q65.74 8.74 66.49 8.2 67.23 7.67 68.13 8.2L68.13 8.2Q71.36 10.16 74.29 10.5L74.29 10.5Q74.95 10.57 75.56 10.57L75.56 10.57Q78.41 10.57 80.06 9.08 81.71 7.59 82.81 5.3L82.81 5.3Q85 0.73 85-7.03L85-7.03Q85-7.96 84.98-8.91L84.98-8.91Q80.76-0.49 76.8-0.02L76.8-0.02Q75.75 0.29 74.8 0.29ZM75.02-2.93L75.02-2.93Q75.43-2.93 75.78-3.06 76.12-3.2 76.56-3.2L76.56-3.2Q76.9-3.2 77.85-4L77.85-4Q78.78-4.81 79.78-6.25 80.78-7.69 81.66-9.33 82.54-10.96 83.1-12.38L83.1-12.38Q84.25-15.28 84.39-16.04L84.39-16.04Q84.37-16.24 84.36-16.36 84.35-16.48 84.35-16.53L84.35-16.53Q84.13-19.12 83.1-20.37 82.08-21.63 80-21.63L80-21.63Q78.71-21.63 77.53-21.19L77.53-21.19Q74.16-20 72.5-16.28L72.5-16.28Q71.19-13.31 71.19-10.33L71.19-10.33Q71.19-8.23 71.71-6.38 72.24-4.54 72.99-3.83L72.99-3.83Q73.95-2.93 75.02-2.93ZM93.03-29.66L93.03-29.66Q93.03-30.57 93.58-31.41 94.13-32.25 94.94-32.78 95.74-33.3 96.53-33.3L96.53-33.3Q97.67-33.3 98.47-32.34 99.26-31.37 99.26-30.42L99.26-30.42Q99.26-29.52 98.7-28.76 98.14-28 97.18-27.66L97.18-27.66Q96.11-27.12 95.28-27.12L95.28-27.12Q94.38-27.12 93.71-27.87 93.03-28.61 93.03-29.66ZM96.99-3.98L96.99-3.98Q96.92-2.03 96.45-0.87 95.99 0.29 94.84 0.29L94.84 0.29Q94.21 0.29 93.72-0.17 93.23-0.63 93.23-1.32L93.23-1.32Q93.23-1.64 93.35-1.95L93.35-1.95Q93.57-2.47 93.71-3.99 93.84-5.52 93.91-7.59 93.99-9.67 94.02-11.88 94.06-14.09 94.06-15.99 94.06-17.9 94.06-19.02L94.06-19.02Q94.06-21.09 94.04-23L94.04-23Q94.04-23.78 94.54-24.17 95.04-24.56 95.65-24.56L95.65-24.56Q96.23-24.56 96.71-24.18 97.18-23.8 97.18-23.05L97.18-23.05Q97.21-21.75 97.22-20.51 97.23-19.26 97.23-18.07L97.23-18.07Q97.23-14.09 97.2-10.86 97.16-7.64 96.99-3.98ZM105.78-25.15L105.78-25.15Q106.48-25.15 106.95-24.58L106.95-24.58Q108.71-22.46 109.51-18.04L109.51-18.04Q112.83-24.05 118.08-24.8L118.08-24.8Q118.91-24.93 119.72-24.93L119.72-24.93Q122.65-24.93 124.89-23.58 127.14-22.24 128.58-20.04 130.02-17.85 130.53-15.31L130.53-15.31Q130.87-13.67 130.87-11.96L130.87-11.96Q130.87-6.57 127.43-0.56L127.43-0.56Q126.99 0.2 126.09 0.2L126.09 0.2Q125.33 0.2 124.73-0.52 124.14-1.25 124.67-2.15L124.67-2.15Q127.7-7.42 127.7-11.99L127.7-11.99Q127.7-13.35 127.43-14.65L127.43-14.65Q127.04-16.53 126-18.14 124.97-19.75 123.37-20.74 121.77-21.73 119.69-21.73L119.69-21.73Q119.13-21.73 118.54-21.66L118.54-21.66Q116.13-21.31 114.42-19.53 112.71-17.75 111.67-15.22 110.63-12.7 110.17-10.08L110.17-10.08Q110.17-9.77 110.17-9.45L110.17-9.45Q110.17-5.93 109.8-2.37L109.8-2.37 109.71-1.42Q109.63-0.73 109.17-0.4 108.71-0.07 108.17-0.07L108.17-0.07Q107.58-0.07 107.08-0.44 106.58-0.81 106.56-1.54L106.56-1.54Q106.51-2.64 106.51-3.69L106.51-3.69Q106.51-7.28 107-10.3L107-10.3Q106.9-15.92 106.12-18.73L106.12-18.73Q105.36-21.51 104.73-22.29L104.73-22.29Q104.14-23.02 104.14-23.58L104.14-23.58Q104.14-24.29 104.65-24.72 105.17-25.15 105.78-25.15ZM139.22-8.28L139.22-8.28Q139.93-5.74 141.97-4.3 144.01-2.86 147.11-2.86L147.11-2.86Q151.26-2.86 156.75-5.57L156.75-5.57Q157.09-5.74 157.46-5.74L157.46-5.74Q158.09-5.74 158.57-5.3 159.05-4.86 159.05-4.2L159.05-4.2Q159.05-3.15 158.17-2.71L158.17-2.71Q155.38-1.34 152.5-0.51 149.62 0.32 146.94 0.32L146.94 0.32Q144.18 0.32 141.8-0.71 139.42-1.73 137.73-4.13L137.73-4.13Q136.78-5.47 136.27-6.98 135.75-8.5 135.75-10.38L135.75-10.38Q135.75-11.21 135.85-12.11L135.85-12.11Q136.41-16.77 139.73-20.09L139.73-20.09Q144.03-24.39 151.04-24.39L151.04-24.39Q153.72-24.39 155.75-23.35 157.78-22.31 158.63-20.41L158.63-20.41Q159.09-19.36 159.09-18.19L159.09-18.19Q159.09-16.19 158.06-14.66 157.02-13.13 155.11-11.84L155.11-11.84Q149.77-8.23 139.61-8.23L139.61-8.23Q139.47-8.23 139.22-8.28ZM138.95-11.25L138.95-11.25Q139.29-11.4 139.61-11.4L139.61-11.4Q148.82-11.4 153.36-14.48L153.36-14.48Q154.63-15.33 155.29-16.22 155.94-17.11 155.94-18.29L155.94-18.29Q155.94-18.97 155.64-19.38 155.33-19.8 154.85-20.17L154.85-20.17Q153.48-21.22 151.06-21.22L151.06-21.22Q147.81-21.22 145.15-20.01 142.49-18.8 140.84-16.56 139.2-14.33 138.95-11.25ZM167.44-8.28L167.44-8.28Q168.15-5.74 170.19-4.3 172.23-2.86 175.33-2.86L175.33-2.86Q179.48-2.86 184.97-5.57L184.97-5.57Q185.31-5.74 185.68-5.74L185.68-5.74Q186.31-5.74 186.79-5.3 187.27-4.86 187.27-4.2L187.27-4.2Q187.27-3.15 186.39-2.71L186.39-2.71Q183.6-1.34 180.72-0.51 177.84 0.32 175.16 0.32L175.16 0.32Q172.4 0.32 170.02-0.71 167.64-1.73 165.95-4.13L165.95-4.13Q165-5.47 164.49-6.98 163.97-8.5 163.97-10.38L163.97-10.38Q163.97-11.21 164.07-12.11L164.07-12.11Q164.63-16.77 167.95-20.09L167.95-20.09Q172.25-24.39 179.26-24.39L179.26-24.39Q181.94-24.39 183.97-23.35 186-22.31 186.85-20.41L186.85-20.41Q187.31-19.36 187.31-18.19L187.31-18.19Q187.31-16.19 186.28-14.66 185.24-13.13 183.33-11.84L183.33-11.84Q177.99-8.23 167.83-8.23L167.83-8.23Q167.69-8.23 167.44-8.28ZM167.17-11.25L167.17-11.25Q167.51-11.4 167.83-11.4L167.83-11.4Q177.04-11.4 181.58-14.48L181.58-14.48Q182.85-15.33 183.51-16.22 184.16-17.11 184.16-18.29L184.16-18.29Q184.16-18.97 183.86-19.38 183.55-19.8 183.07-20.17L183.07-20.17Q181.7-21.22 179.28-21.22L179.28-21.22Q176.03-21.22 173.37-20.01 170.71-18.8 169.06-16.56 167.42-14.33 167.17-11.25ZM193.85 0.2L193.85 0.2Q193.17 0.2 192.68-0.48 192.19-1.15 192.19-1.68L192.19-1.68Q192.19-2.15 192.35-2.64 192.51-3.13 192.54-3.56L192.54-3.56Q192.61-4.91 192.8-7.19 193-9.47 193-11.62L193-11.62Q193-13.18 192.95-15.01L192.95-15.01Q192.8-20.41 192.51-21.58L192.51-21.58Q192.39-22.09 192.39-22.51L192.39-22.51Q192.39-23.22 192.79-23.67 193.2-24.12 193.93-24.12L193.93-24.12Q194.49-24.12 194.9-23.75 195.32-23.39 195.44-22.92L195.44-22.92Q195.98-20.9 196.08-16.7L196.08-16.7Q199.64-23.71 205.72-24.46L205.72-24.46Q205.82-24.46 205.92-24.46L205.92-24.46Q206.65-24.46 207.05-23.94 207.45-23.41 207.45-22.8L207.45-22.8Q207.45-22.27 207.14-21.83 206.82-21.39 206.11-21.31L206.11-21.31Q199.91-20.53 196.98-10.21L196.98-10.21Q196.27-7.69 195.91-5.03L195.91-5.03Q195.83-3.93 195.77-3.3 195.71-2.66 195.71-2.1L195.71-2.1Q195.71-1.78 195.76-1.59 195.81-1.39 195.81-1.25L195.81-1.25Q195.81-0.71 195.09-0.26 194.37 0.2 193.85 0.2ZM212.38-29.66L212.38-29.66Q212.38-30.57 212.93-31.41 213.48-32.25 214.29-32.78 215.09-33.3 215.87-33.3L215.87-33.3Q217.02-33.3 217.81-32.34 218.61-31.37 218.61-30.42L218.61-30.42Q218.61-29.52 218.05-28.76 217.48-28 216.53-27.66L216.53-27.66Q215.46-27.12 214.63-27.12L214.63-27.12Q213.73-27.12 213.05-27.87 212.38-28.61 212.38-29.66ZM216.34-3.98L216.34-3.98Q216.26-2.03 215.8-0.87 215.34 0.29 214.19 0.29L214.19 0.29Q213.55 0.29 213.07-0.17 212.58-0.63 212.58-1.32L212.58-1.32Q212.58-1.64 212.7-1.95L212.7-1.95Q212.92-2.47 213.05-3.99 213.19-5.52 213.26-7.59 213.33-9.67 213.37-11.88 213.41-14.09 213.41-15.99 213.41-17.9 213.41-19.02L213.41-19.02Q213.41-21.09 213.38-23L213.38-23Q213.38-23.78 213.88-24.17 214.38-24.56 214.99-24.56L214.99-24.56Q215.58-24.56 216.06-24.18 216.53-23.8 216.53-23.05L216.53-23.05Q216.56-21.75 216.57-20.51 216.58-19.26 216.58-18.07L216.58-18.07Q216.58-14.09 216.54-10.86 216.51-7.64 216.34-3.98ZM225.12-25.15L225.12-25.15Q225.83-25.15 226.3-24.58L226.3-24.58Q228.05-22.46 228.86-18.04L228.86-18.04Q232.18-24.05 237.43-24.8L237.43-24.8Q238.26-24.93 239.06-24.93L239.06-24.93Q241.99-24.93 244.24-23.58 246.49-22.24 247.93-20.04 249.37-17.85 249.88-15.31L249.88-15.31Q250.22-13.67 250.22-11.96L250.22-11.96Q250.22-6.57 246.78-0.56L246.78-0.56Q246.34 0.2 245.44 0.2L245.44 0.2Q244.68 0.2 244.08-0.52 243.48-1.25 244.02-2.15L244.02-2.15Q247.05-7.42 247.05-11.99L247.05-11.99Q247.05-13.35 246.78-14.65L246.78-14.65Q246.39-16.53 245.35-18.14 244.31-19.75 242.71-20.74 241.12-21.73 239.04-21.73L239.04-21.73Q238.48-21.73 237.89-21.66L237.89-21.66Q235.48-21.31 233.77-19.53 232.06-17.75 231.02-15.22 229.98-12.7 229.52-10.08L229.52-10.08Q229.52-9.77 229.52-9.45L229.52-9.45Q229.52-5.93 229.15-2.37L229.15-2.37 229.05-1.42Q228.98-0.73 228.52-0.4 228.05-0.07 227.52-0.07L227.52-0.07Q226.93-0.07 226.43-0.44 225.93-0.81 225.91-1.54L225.91-1.54Q225.86-2.64 225.86-3.69L225.86-3.69Q225.86-7.28 226.34-10.3L226.34-10.3Q226.25-15.92 225.47-18.73L225.47-18.73Q224.71-21.51 224.07-22.29L224.07-22.29Q223.49-23.02 223.49-23.58L223.49-23.58Q223.49-24.29 224-24.72 224.51-25.15 225.12-25.15ZM264.18 0.29L264.18 0.29Q261.86 0.29 260.36-1.29 258.86-2.88 258.13-5.32 257.4-7.76 257.4-10.33L257.4-10.33Q257.4-13.99 258.91-17.43L258.91-17.43Q261.13-22.49 265.84-24.17L265.84-24.17Q267.58-24.8 269.29-24.8L269.29-24.8Q272.8-24.8 274.73-22.49 276.66-20.17 276.9-16.72L276.9-16.72Q277-16.24 277.12-14.98 277.25-13.72 277.34-12.19 277.44-10.67 277.5-9.25 277.56-7.84 277.56-7.01L277.56-7.01Q277.56 1.46 275.05 6.69L275.05 6.69Q273.63 9.59 271.17 11.68 268.7 13.77 264.92 13.77L264.92 13.77Q264.21 13.77 263.45 13.67L263.45 13.67Q259.64 13.23 255.86 10.91L255.86 10.91Q255.13 10.47 255.13 9.57L255.13 9.57Q255.13 8.74 255.87 8.2 256.62 7.67 257.52 8.2L257.52 8.2Q260.74 10.16 263.67 10.5L263.67 10.5Q264.33 10.57 264.94 10.57L264.94 10.57Q267.8 10.57 269.45 9.08 271.09 7.59 272.19 5.3L272.19 5.3Q274.39 0.73 274.39-7.03L274.39-7.03Q274.39-7.96 274.36-8.91L274.36-8.91Q270.14-0.49 266.19-0.02L266.19-0.02Q265.14 0.29 264.18 0.29ZM264.4-2.93L264.4-2.93Q264.82-2.93 265.16-3.06 265.5-3.2 265.94-3.2L265.94-3.2Q266.28-3.2 267.24-4L267.24-4Q268.16-4.81 269.16-6.25 270.17-7.69 271.04-9.33 271.92-10.96 272.48-12.38L272.48-12.38Q273.63-15.28 273.78-16.04L273.78-16.04Q273.75-16.24 273.74-16.36 273.73-16.48 273.73-16.53L273.73-16.53Q273.51-19.12 272.48-20.37 271.46-21.63 269.38-21.63L269.38-21.63Q268.09-21.63 266.92-21.19L266.92-21.19Q263.55-20 261.89-16.28L261.89-16.28Q260.57-13.31 260.57-10.33L260.57-10.33Q260.57-8.23 261.1-6.38 261.62-4.54 262.38-3.83L262.38-3.83Q263.33-2.93 264.4-2.93ZM313.37-20L313.54-22.8Q313.89-24.17 315.13-24.17L315.13-24.17Q315.72-24.17 316.17-23.73 316.62-23.29 316.69-22.73L316.69-22.73Q316.91-20.51 316.91-18.48L316.91-18.48Q316.91-15.63 316.47-13.13L316.47-13.13Q316.62-4.71 317.99-2.17L317.99-2.17Q318.16-1.88 318.18-1.86L318.18-1.86Q318.99-1.42 318.99-0.44L318.99-0.44Q318.99 0.49 318.21 0.9 317.43 1.32 316.45 0.81L316.45 0.81Q314.62-0.15 313.81-5.59L313.81-5.59Q313.01-4.2 311.66-2.78 310.32-1.37 308.6-0.43 306.88 0.51 304.88 0.51L304.88 0.51Q303.58 0.51 302.31 0.05L302.31 0.05Q299.26-1.07 297.68-4.55 296.09-8.03 296.09-12.52L296.09-12.52Q296.09-17.31 297.75-23.51L297.75-23.51Q297.89-24.05 298.36-24.35 298.82-24.66 299.34-24.66L299.34-24.66Q299.99-24.66 300.53-24.07 301.07-23.49 300.82-22.68L300.82-22.68Q299.24-16.97 299.24-12.62L299.24-12.62Q299.24-9.33 300.14-6.81L300.14-6.81Q300.78-5.05 301.97-3.85 303.17-2.64 304.83-2.64L304.83-2.64Q306.24-2.64 307.76-3.61L307.76-3.61Q311.96-6.3 313.3-13.4L313.3-13.4Q313.3-13.89 313.29-14.42 313.28-14.94 313.28-15.48L313.28-15.48Q313.28-16.53 313.3-17.66 313.32-18.8 313.37-20L313.37-20ZM324.92-25.15L324.92-25.15Q325.63-25.15 326.09-24.58L326.09-24.58Q327.85-22.46 328.65-18.04L328.65-18.04Q331.97-24.05 337.22-24.8L337.22-24.8Q338.05-24.93 338.86-24.93L338.86-24.93Q341.79-24.93 344.03-23.58 346.28-22.24 347.72-20.04 349.16-17.85 349.67-15.31L349.67-15.31Q350.02-13.67 350.02-11.96L350.02-11.96Q350.02-6.57 346.57-0.56L346.57-0.56Q346.13 0.2 345.23 0.2L345.23 0.2Q344.47 0.2 343.88-0.52 343.28-1.25 343.82-2.15L343.82-2.15Q346.84-7.42 346.84-11.99L346.84-11.99Q346.84-13.35 346.57-14.65L346.57-14.65Q346.18-16.53 345.15-18.14 344.11-19.75 342.51-20.74 340.91-21.73 338.83-21.73L338.83-21.73Q338.27-21.73 337.69-21.66L337.69-21.66Q335.27-21.31 333.56-19.53 331.85-17.75 330.81-15.22 329.78-12.7 329.31-10.08L329.31-10.08Q329.31-9.77 329.31-9.45L329.31-9.45Q329.31-5.93 328.95-2.37L328.95-2.37 328.85-1.42Q328.78-0.73 328.31-0.4 327.85-0.07 327.31-0.07L327.31-0.07Q326.73-0.07 326.22-0.44 325.72-0.81 325.7-1.54L325.7-1.54Q325.65-2.64 325.65-3.69L325.65-3.69Q325.65-7.28 326.14-10.3L326.14-10.3Q326.04-15.92 325.26-18.73L325.26-18.73Q324.5-21.51 323.87-22.29L323.87-22.29Q323.28-23.02 323.28-23.58L323.28-23.58Q323.28-24.29 323.8-24.72 324.31-25.15 324.92-25.15ZM354.9-29.66L354.9-29.66Q354.9-30.57 355.45-31.41 356-32.25 356.8-32.78 357.61-33.3 358.39-33.3L358.39-33.3Q359.54-33.3 360.33-32.34 361.12-31.37 361.12-30.42L361.12-30.42Q361.12-29.52 360.56-28.76 360-28 359.05-27.66L359.05-27.66Q357.97-27.12 357.14-27.12L357.14-27.12Q356.24-27.12 355.57-27.87 354.9-28.61 354.9-29.66ZM358.85-3.98L358.85-3.98Q358.78-2.03 358.31-0.87 357.85 0.29 356.7 0.29L356.7 0.29Q356.07 0.29 355.58-0.17 355.09-0.63 355.09-1.32L355.09-1.32Q355.09-1.64 355.21-1.95L355.21-1.95Q355.43-2.47 355.57-3.99 355.7-5.52 355.78-7.59 355.85-9.67 355.89-11.88 355.92-14.09 355.92-15.99 355.92-17.9 355.92-19.02L355.92-19.02Q355.92-21.09 355.9-23L355.9-23Q355.9-23.78 356.4-24.17 356.9-24.56 357.51-24.56L357.51-24.56Q358.09-24.56 358.57-24.18 359.05-23.8 359.05-23.05L359.05-23.05Q359.07-21.75 359.08-20.51 359.1-19.26 359.1-18.07L359.1-18.07Q359.1-14.09 359.06-10.86 359.02-7.64 358.85-3.98ZM366.03-23.29L366.03-23.29Q366-23.44 366-23.56L366-23.56Q366-24.27 366.52-24.66 367.03-25.05 367.64-25.05L367.64-25.05Q368.18-25.05 368.63-24.73 369.08-24.41 369.15-23.73L369.15-23.73Q371.72-5.35 374.38-3.2L374.38-3.2Q377.26-5.22 381.8-23.61L381.8-23.61Q381.94-24.19 382.37-24.48 382.8-24.76 383.29-24.76L383.29-24.76Q383.9-24.76 384.42-24.37 384.95-23.97 384.95-23.24L384.95-23.24Q384.95-23.05 384.9-22.85L384.9-22.85Q381.36-8.52 378.62-3.61L378.62-3.61Q376.6 0.07 374.4 0.07L374.4 0.07Q373.69 0.07 372.96-0.32L372.96-0.32Q370.62-1.54 369.05-7.28L369.05-7.28Q367.47-12.96 366.03-23.29ZM393.27-8.28L393.27-8.28Q393.98-5.74 396.02-4.3 398.06-2.86 401.16-2.86L401.16-2.86Q405.31-2.86 410.8-5.57L410.8-5.57Q411.14-5.74 411.51-5.74L411.51-5.74Q412.14-5.74 412.62-5.3 413.09-4.86 413.09-4.2L413.09-4.2Q413.09-3.15 412.22-2.71L412.22-2.71Q409.43-1.34 406.55-0.51 403.67 0.32 400.99 0.32L400.99 0.32Q398.23 0.32 395.85-0.71 393.47-1.73 391.78-4.13L391.78-4.13Q390.83-5.47 390.32-6.98 389.8-8.5 389.8-10.38L389.8-10.38Q389.8-11.21 389.9-12.11L389.9-12.11Q390.46-16.77 393.78-20.09L393.78-20.09Q398.08-24.39 405.09-24.39L405.09-24.39Q407.77-24.39 409.8-23.35 411.83-22.31 412.68-20.41L412.68-20.41Q413.14-19.36 413.14-18.19L413.14-18.19Q413.14-16.19 412.11-14.66 411.07-13.13 409.16-11.84L409.16-11.84Q403.82-8.23 393.66-8.23L393.66-8.23Q393.51-8.23 393.27-8.28ZM393-11.25L393-11.25Q393.34-11.4 393.66-11.4L393.66-11.4Q402.87-11.4 407.41-14.48L407.41-14.48Q408.68-15.33 409.34-16.22 409.99-17.11 409.99-18.29L409.99-18.29Q409.99-18.97 409.69-19.38 409.38-19.8 408.9-20.17L408.9-20.17Q407.53-21.22 405.11-21.22L405.11-21.22Q401.86-21.22 399.2-20.01 396.54-18.8 394.89-16.56 393.25-14.33 393-11.25ZM419.68 0.2L419.68 0.2Q419 0.2 418.51-0.48 418.02-1.15 418.02-1.68L418.02-1.68Q418.02-2.15 418.18-2.64 418.34-3.13 418.37-3.56L418.37-3.56Q418.44-4.91 418.63-7.19 418.83-9.47 418.83-11.62L418.83-11.62Q418.83-13.18 418.78-15.01L418.78-15.01Q418.63-20.41 418.34-21.58L418.34-21.58Q418.22-22.09 418.22-22.51L418.22-22.51Q418.22-23.22 418.62-23.67 419.02-24.12 419.76-24.12L419.76-24.12Q420.32-24.12 420.73-23.75 421.15-23.39 421.27-22.92L421.27-22.92Q421.81-20.9 421.91-16.7L421.91-16.7Q425.47-23.71 431.55-24.46L431.55-24.46Q431.65-24.46 431.74-24.46L431.74-24.46Q432.48-24.46 432.88-23.94 433.28-23.41 433.28-22.8L433.28-22.8Q433.28-22.27 432.97-21.83 432.65-21.39 431.94-21.31L431.94-21.31Q425.74-20.53 422.81-10.21L422.81-10.21Q422.1-7.69 421.73-5.03L421.73-5.03Q421.66-3.93 421.6-3.3 421.54-2.66 421.54-2.1L421.54-2.1Q421.54-1.78 421.59-1.59 421.64-1.39 421.64-1.25L421.64-1.25Q421.64-0.71 420.92-0.26 420.2 0.2 419.68 0.2ZM438.21-17.87L438.21-17.87Q438.21-20.14 439.41-21.69 440.6-23.24 442.51-24.02 444.41-24.8 446.56-24.8L446.56-24.8Q453.54-24.8 458.21-20.36L458.21-20.36Q458.7-19.9 458.7-19.26L458.7-19.26Q458.7-18.65 458.27-18.16 457.84-17.68 457.16-17.65L457.16-17.65Q456.47-17.65 456.03-18.07L456.03-18.07Q454.64-19.41 452.29-20.52 449.93-21.63 447.49-21.63L447.49-21.63Q442.46-21.63 441.56-18.9L441.56-18.9Q441.36-18.31 441.36-17.77L441.36-17.77Q441.36-16.31 442.73-15.06L442.73-15.06Q444.24-13.67 447.81-13.67L447.81-13.67Q448.39-13.67 449.05-13.72 449.71-13.77 450.37-13.77L450.37-13.77Q453.52-13.77 455.47-12.83 457.43-11.89 458.45-9.84L458.45-9.84Q459.11-8.47 459.11-7.18L459.11-7.18Q459.11-6.59 458.99-6.01L458.99-6.01Q458.18-2.44 454.57-0.81L454.57-0.81Q452.3 0.24 449.76 0.24L449.76 0.24Q449.25 0.24 448.71 0.2L448.71 0.2Q442.92-0.34 439.09-3.71L439.09-3.71Q438.55-4.17 438.55-4.91L438.55-4.91Q438.55-5.57 439.03-6.02 439.51-6.47 440.14-6.47L440.14-6.47Q440.75-6.47 441.19-6.1L441.19-6.1Q442.9-4.61 445-3.78 447.1-2.95 449.81-2.95L449.81-2.95Q453.2-2.95 454.98-4.91L454.98-4.91Q455.96-5.98 455.96-7.1L455.96-7.1Q455.96-7.76 455.62-8.45L455.62-8.45Q454.57-10.6 451.18-10.6L451.18-10.6Q450.44-10.6 449.66-10.56 448.88-10.52 448.25-10.52L448.25-10.52Q445.34-10.52 443.95-10.89L443.95-10.89Q442.02-11.4 440.53-12.77 439.04-14.14 438.48-16.04L438.48-16.04Q438.21-16.94 438.21-17.87ZM463.99-29.66L463.99-29.66Q463.99-30.57 464.54-31.41 465.09-32.25 465.89-32.78 466.7-33.3 467.48-33.3L467.48-33.3Q468.63-33.3 469.42-32.34 470.22-31.37 470.22-30.42L470.22-30.42Q470.22-29.52 469.65-28.76 469.09-28 468.14-27.66L468.14-27.66Q467.07-27.12 466.24-27.12L466.24-27.12Q465.33-27.12 464.66-27.87 463.99-28.61 463.99-29.66ZM467.95-3.98L467.95-3.98Q467.87-2.03 467.41-0.87 466.94 0.29 465.8 0.29L465.8 0.29Q465.16 0.29 464.67-0.17 464.19-0.63 464.19-1.32L464.19-1.32Q464.19-1.64 464.31-1.95L464.31-1.95Q464.53-2.47 464.66-3.99 464.8-5.52 464.87-7.59 464.94-9.67 464.98-11.88 465.02-14.09 465.02-15.99 465.02-17.9 465.02-19.02L465.02-19.02Q465.02-21.09 464.99-23L464.99-23Q464.99-23.78 465.49-24.17 465.99-24.56 466.6-24.56L466.6-24.56Q467.19-24.56 467.66-24.18 468.14-23.8 468.14-23.05L468.14-23.05Q468.17-21.75 468.18-20.51 468.19-19.26 468.19-18.07L468.19-18.07Q468.19-14.09 468.15-10.86 468.12-7.64 467.95-3.98ZM487.87-0.78L487.87-0.78Q487.87-0.12 487.38 0.34 486.89 0.81 486.25 0.81L486.25 0.81Q485.86 0.81 485.52 0.61L485.52 0.61Q482.37-1.07 481.71-8.59L481.71-8.59Q481.57-10.23 481.49-12.12 481.42-14.01 481.42-16.19L481.42-16.19Q481.42-18.29 481.49-20.78L481.49-20.78Q480.3-20.78 479.1-20.79 477.9-20.8 476.68-20.8L476.68-20.8Q476.05-20.8 475.57-21.3 475.1-21.8 475.1-22.44L475.1-22.44Q475.1-23.02 475.57-23.5 476.05-23.97 476.68-23.97L476.68-23.97 481.59-23.95Q481.62-24.68 481.66-26.2 481.71-27.71 481.76-29.42 481.81-31.13 481.81-32.42L481.81-32.42Q481.81-32.81 481.8-33.13 481.79-33.45 481.79-33.72L481.79-33.72Q481.79-34.45 482.29-34.84 482.79-35.23 483.37-35.23L483.37-35.23Q483.96-35.23 484.45-34.86 484.94-34.5 484.96-33.74L484.96-33.74Q484.98-33.25 484.98-32.5L484.98-32.5Q484.98-31.15 484.94-29.44 484.89-27.73 484.84-26.21 484.79-24.68 484.76-23.93L484.76-23.93 488.45-23.9Q489.21-23.9 489.6-23.39 489.99-22.88 489.99-22.29L489.99-22.29Q489.99-21.7 489.61-21.22 489.23-20.73 488.48-20.73L488.48-20.73Q488.45-20.73 488.45-20.73L488.45-20.73Q487.5-20.73 486.56-20.74 485.62-20.75 484.67-20.75L484.67-20.75Q484.62-18.55 484.62-16.6L484.62-16.6Q484.62-7.76 485.81-4.17L485.81-4.17Q486.38-2.54 486.99-2.22L486.99-2.22Q487.35-2.03 487.61-1.64 487.87-1.25 487.87-0.78ZM512.96-22.63L512.96-22.63 513.25-18.97Q513.52-14.55 513.52-10.67L513.52-10.67Q513.52 5.66 508.79 12.13L508.79 12.13Q507.54 13.84 505.94 14.65 504.34 15.45 502.54 15.45L502.54 15.45Q500.19 15.45 497.58 14.18L497.58 14.18Q496.75 13.77 496.75 12.74L496.75 12.74Q496.75 12.04 497.41 11.47 498.07 10.91 499 11.33L499 11.33Q500.92 12.3 502.46 12.3L502.46 12.3Q503.54 12.3 504.42 11.84L504.42 11.84Q506.1 10.96 507.21 8.69 508.32 6.42 508.99 3.32 509.66 0.22 509.97-3.16 510.27-6.54 510.32-9.64L510.32-9.64Q509.76-8.08 508.88-6.36 508-4.64 506.82-3.13 505.64-1.61 504.21-0.66 502.78 0.29 501.09 0.29L501.09 0.29Q499.09 0.29 497.71-0.96 496.33-2.22 495.38-4.54L495.38-4.54Q493.7-8.59 493.7-15.23L493.7-15.23Q493.7-18.82 494.19-23.14L494.19-23.14Q494.26-23.83 494.72-24.16 495.19-24.49 495.75-24.49L495.75-24.49Q496.33-24.49 496.83-24.11 497.34-23.73 497.34-22.97L497.34-22.97Q497.34-22.88 497.34-22.78L497.34-22.78Q496.87-18.58 496.87-15.19L496.87-15.19Q496.87-9.2 498.31-5.71L498.31-5.71Q499.48-2.86 501.12-2.86L501.12-2.86Q502.61-2.86 504.46-5.25L504.46-5.25Q508.74-10.79 509.79-22.58L509.79-22.58Q509.84-23.27 510.31-23.62 510.79-23.97 511.35-23.97L511.35-23.97Q511.91-23.97 512.39-23.63 512.86-23.29 512.96-22.63Z" opacity="1" transform="matrix(1,0,0,1,0,0)" fill="#48937e" class="wordmark-text-0" data-fill-palette-color="primary" id="text-0"></path></svg></g></svg></g></svg></g></svg></g><g transform="matrix(1,0,0,1,82.6017420062427,0)"><svg viewBox="0 0 26.796515987514585 26.311336645013377" height="26.311336645013377" width="26.796515987514585"><g><svg xmlns="http://www.w3.org/2000/svg" xmlns:xlink="http://www.w3.org/1999/xlink" version="1.1" x="0" y="0" viewBox="1 1.598 66 64.805" enable-background="new 0 0 68 68" xml:space="preserve" height="26.311336645013377" width="26.796515987514585" class="icon-icon-0" data-fill-palette-color="accent" id="icon-0"><g fill="#ffffff" data-fill-palette-color="accent"><g fill="#ffffff" data-fill-palette-color="accent"><path d="M63.808 23.325V20.172H4.193V23.325z" fill="#ffffff" data-fill-palette-color="accent"></path></g><g fill="#ffffff" data-fill-palette-color="accent"><path d="M34 1.598L11.494 18.039H56.506zM46.322 15.242H21.7A0.533 0.533 0 0 1 21.384 14.278L33.686 5.291A0.535 0.535 0 0 1 34.315 5.291L46.536 14.221A0.533 0.533 0 0 1 46.322 15.242" fill="#ffffff" data-fill-palette-color="accent"></path></g><g fill="#ffffff" data-fill-palette-color="accent"><polygon points="23.33294,14.17581 44.66705,14.17581 34.00013,6.3825   " fill="#ffffff" data-fill-palette-color="accent"></polygon></g><g fill="#ffffff" data-fill-palette-color="accent"><path d="M1 63.113V66.403H67V63.112z" fill="#ffffff" data-fill-palette-color="accent"></path></g><g fill="#ffffff" data-fill-palette-color="accent"><path d="M57.877 55.557V25.458H10.123V55.558H12.8V33.831C12.8 31.578 14.635 29.744 16.89 29.744S20.977 31.578 20.977 33.832V55.557H24.207V33.832C24.208 31.578 26.043 29.744 28.298 29.744S32.384 31.578 32.384 33.832V55.557H35.615V33.832A4.093 4.093 0 0 1 39.704 29.744 4.093 4.093 0 0 1 43.792 33.832V55.557H47.022V33.832A4.093 4.093 0 0 1 51.112 29.744 4.093 4.093 0 0 1 55.2 33.832V55.557z" fill="#ffffff" data-fill-palette-color="accent"></path></g><g fill="#ffffff" data-fill-palette-color="accent"><path d="M63.808 57.69H4.193V60.98H63.808z" fill="#ffffff" data-fill-palette-color="accent"></path></g><g fill="#ffffff" data-fill-palette-color="accent"><path d="M56.294 12.232C56.475 12.275 56.678 12.232 56.805 12.093L58.065 10.835 60.527 13.309A0.54 0.54 0 0 0 60.9 13.46 0.56 0.56 0 0 0 61.285 13.308L63.514 11.07A0.53 0.53 0 0 0 63.514 10.312L61.05 7.848 62.298 6.601A0.52 0.52 0 0 0 62.437 6.089 0.54 0.54 0 0 0 62.053 5.705L54.641 3.785A0.51 0.51 0 0 0 54.129 3.924 0.56 0.56 0 0 0 53.989 4.435L55.92 11.848C55.963 12.029 56.102 12.178 56.293 12.232" fill="#ffffff" data-fill-palette-color="accent"></path></g></g></svg></g></svg></g><g></g></svg></g></svg></g></svg></g></svg></g><defs></defs></svg><rect width="320" height="360" fill="none" stroke="none" visibility="hidden"></rect></g></svg></g></svg>