<svg xmlns="http://www.w3.org/2000/svg" xmlns:xlink="http://www.w3.org/1999/xlink" version="1.1" x="0px" y="0px" viewBox="0 0 100 100"  xml:space="preserve"><path d="M75.3,73.9H26.9c-0.4,0-0.8,0-1.1,0.1c1.7,1.1,2.8,2.8,2.8,4.6c0,1.8-1.1,3.4-2.8,4.6c0.4,0.1,0.7,0.1,1.1,0.1h48.4  c2.7,0,5-1.6,5-3.4v-2.4C80.3,75.4,78,73.9,75.3,73.9z"></path><path d="M71.6,85.8H23.2c-0.4,0-0.8,0-1.1,0.1c1.7,1.1,2.8,2.7,2.8,4.5c0,1.8-1.1,3.4-2.8,4.5c0.4,0.1,0.7,0.1,1.1,0.1h48.4  c2.7,0,5-1.5,5-3.4v-2.4C76.6,87.3,74.3,85.8,71.6,85.8z"></path><path d="M65.9,63.5H51.2c1.1-3.8,2.2-7.5,2.9-11.5c0.1-0.3,0.3-0.9,0.6-1.4c0.4-0.7,2.1-2.4,2.1-2.4l1.5-1.6l0.4-0.3  c0.1-0.1,0.2-0.2,0.3-0.2c0.2-0.2,0.5-0.3,0.8-0.5c1.1-0.5,2.5-0.8,3.8-0.8c1.3,0,2.4,0.4,3,1.3c0.7,0.9,0.6,2.4,0.2,3.7  c-0.4,1.4-0.9,2.4-2.1,2.9C63.6,53.4,62,53,61,52c-0.5-0.5-0.9-0.8-1.1-1.6c-0.2-0.7,0.2-1.5,0.8-2c-0.6,0.4-1.1,1.2-1,2  c0.1,0.8,0.4,1.5,0.9,2.1c0.5,0.6,1.2,1.1,1.9,1.4c0.8,0.3,1.7,0.3,2.5,0c1.7-0.6,2.6-2.2,3.2-3.7c0.3-0.7,0.6-1.5,0.6-2.4  c0.1-0.9,0-1.8-0.5-2.7c-0.4-0.9-1.2-1.5-2-2c-0.8-0.4-1.7-0.7-2.5-0.8c-1.7-0.2-3.4-0.1-5.1,0.5c-0.4,0.1-0.8,0.3-1.3,0.6  c-0.2,0.1-0.4,0.3-0.6,0.4c-0.2,0.2-0.3,0.3-0.5,0.4l-1.6,1.4c0-0.2,0-0.4,0-0.5c0-0.8-0.3-1.8-0.6-2.6c-0.6-1.5-1.4-2.7-2.2-4  l-2.3-3.5c-0.7-1.1-1.5-2.3-2.1-3.4c-0.3-1.4-0.4-2.9-0.3-4.3c0.1-1.2,0.4-2.4,0.9-3.5c0.7,1.2,1.7,1.5,2.5,1.5c0.1,0,0.3,0,0.4,0  c4.5-0.5,11.6-9.9,11.9-15.9L63,8.4l-1,0.6c-2.9,1.7-5.4,2.9-7.4,3.9c-5.8,2.8-8.5,4.2-7.1,9.5c-1.1,1.5-1.8,3.2-2.1,5  c0,0.2,0,0.3-0.1,0.5c-1.1-2.3-2-4.7-2.2-7.2c-0.1-1.3-0.1-2.7,0.2-3.9c0.3-1.3,0.9-2.6,1.3-3.9l2.9-7.8l-3.6,7.5  c-0.6,1.3-1.2,2.5-1.7,3.9c-0.5,1.4-0.7,2.9-0.7,4.3c0,2.9,0.8,5.8,1.8,8.5c0.4,1,0.8,1.9,1.2,2.9c-0.3-0.1-0.5-0.2-0.8-0.3  c-1.8-5.1-4.9-4.7-11.2-3.8c-2.2,0.3-5,0.7-8.3,0.9l-1.2,0.1l0.7,0.9c3,3.8,10.8,7,15.8,7c1.2,0,2.3-0.2,3-0.6  c0.7-0.4,1.7-1.2,1.5-2.9c0.6,0.4,1.2,0.8,1.7,1.3c0.4,0.7,0.7,1.4,1.1,2.1l1.9,3.7c0.6,1.2,1.2,2.4,1.5,3.5  c0.2,0.5,0.2,0.9,0.2,1.5c0,0.5-0.1,1.2-0.2,1.8c-0.2,1.2-0.5,2.5-0.9,3.8c-1.2,4.2-2.8,8.4-4.6,12.5H32.9c-0.3,0-0.5,0-0.8,0.1  c1.2,1,1.9,2.3,1.9,3.8c0,1.5-0.7,2.8-1.9,3.8c0.2,0,0.5,0.1,0.8,0.1h4.4h7.4h0.8h20.4c1.9,0,3.4-1.3,3.4-2.9v-2  C69.3,64.8,67.8,63.5,65.9,63.5z M50.9,24.2c-0.6,0.1-1.5,0-2-1.6c0,0,0,0,0,0c0,0,0.1-0.1,0.1-0.1c0.5-0.7,1.2-1.4,1.9-1.9  c0,0,0,0,0,0l0.5,0.4c0.3,0.2,0.6,0.5,1,0.7c0.6,0.3,1.1,0.5,1.7,0.8C53,23.4,51.8,24.1,50.9,24.2z M54.3,22.3  c-0.5-0.4-1.1-0.7-1.6-1.1c-0.3-0.2-0.6-0.5-0.8-0.8l-0.2-0.3c0.3-0.2,0.6-0.4,0.9-0.6l0.7,0.5c0.3,0.2,0.6,0.4,0.9,0.6  c0.4,0.2,0.8,0.4,1.2,0.6C55.1,21.6,54.7,22,54.3,22.3z M55.6,21.1c-0.4-0.3-0.7-0.5-1.1-0.8c-0.3-0.2-0.5-0.5-0.7-0.7l-0.4-0.4  c0,0,0,0,0,0c0.3-0.2,0.6-0.4,0.9-0.6L55,19c0.3,0.2,0.5,0.4,0.8,0.5c0.3,0.1,0.5,0.2,0.8,0.3C56.3,20.3,55.9,20.7,55.6,21.1z   M55.2,13.9c1.8-0.9,3.9-1.9,6.4-3.3c-0.6,2.9-2.5,6.4-4.7,9c-0.2-0.2-0.5-0.3-0.7-0.5c-0.2-0.2-0.4-0.4-0.7-0.7L55,18  c0.3-0.2,0.5-0.3,0.8-0.5c0.4-0.3,0.8-0.6,1.1-0.9c0.2-0.2,0.4-0.3,0.5-0.5c0.1-0.2,0.3-0.4,0.3-0.7c0,0.2-0.2,0.4-0.3,0.6  c-0.2,0.2-0.4,0.3-0.6,0.5c-0.4,0.3-0.8,0.5-1.2,0.8c-0.2-0.2-0.3-0.4-0.5-0.6c-0.1-0.2-0.1-0.5-0.1-0.8l0-1.8  C55.1,14,55.1,13.9,55.2,13.9z M53.7,14.6c0.4-0.2,0.8-0.4,1.3-0.7l-0.4,1.7c0,0.3-0.2,0.6-0.1,1c0.1,0.3,0.2,0.6,0.3,0.8  c-0.4,0.2-0.7,0.4-1.1,0.6l-0.1-0.6c0-0.4-0.1-0.8-0.1-1.2C53.6,15.8,53.7,15.2,53.7,14.6z M53.6,14.7c-0.1,0.5-0.3,1-0.4,1.6  C53,16.7,53,17.1,53,17.5l-0.1,1.1c-0.4,0.2-0.8,0.4-1.3,0.6l-0.1-0.5c0-0.4-0.1-0.8-0.1-1.2c0-0.6,0.1-1.2,0.2-1.8  C52.2,15.4,52.8,15.1,53.6,14.7z M51.5,15.8c-0.2,0.5-0.3,1.1-0.4,1.6c-0.1,0.4-0.1,0.8-0.2,1.2l-0.1,0.9c-0.1,0.1-0.2,0.1-0.4,0.2  c-0.7,0.4-1.3,0.9-1.9,1.4C48,18.6,48.9,17.3,51.5,15.8z M42.4,31.2c-0.3,0-0.5-0.1-0.8-0.1c-0.2,0-0.4,0-0.5,0  c-0.6-0.7-1.3-1.3-2.1-1.8c-0.5-0.3-1.1-0.6-1.7-0.8C40,28.3,41.4,28.9,42.4,31.2z M36.9,28.5c0.7,0.3,1.3,0.7,1.8,1.2  c0.5,0.4,0.9,0.9,1.3,1.5c-0.6,0.1-1.2,0.2-1.8,0.3c-0.1,0-0.2,0-0.3,0l0,0c0,0,0,0,0,0c-0.1,0-0.1,0-0.2,0  c-0.7-0.8-1.5-1.5-2.5-2.2c-0.3-0.2-0.6-0.4-0.9-0.5C35.3,28.7,36.1,28.6,36.9,28.5z M32.8,29c0.4-0.1,0.7-0.1,1.1-0.1  c0.4,0.2,0.8,0.5,1.1,0.8c0.6,0.6,1.2,1.2,1.7,1.9c-0.5,0-1,0.1-1.5,0.1l0,0c-0.8-0.8-1.6-1.6-2.5-2.2c-0.2-0.1-0.4-0.3-0.6-0.4  C32.3,29.1,32.6,29,32.8,29z M25.7,29.8c2.2-0.2,4.1-0.4,5.8-0.7c0.3,0.2,0.6,0.4,0.9,0.7c0.6,0.5,1.2,1.2,1.6,1.8  c-1.8,0-3.6-0.3-5.2-1.2c1.6,1.1,3.5,1.5,5.5,1.7c-0.1,0.1-0.2,0.2-0.3,0.3c-0.3,0.3-0.6,0.5-0.9,0.7c-0.4,0.2-0.8,0.4-1.2,0.5  C29.4,32.6,27.2,31.3,25.7,29.8z M32.2,33.8c0.3-0.1,0.7-0.1,1-0.2c0.4-0.1,0.8-0.3,1.2-0.5c0.4-0.2,0.7-0.4,1.1-0.8l0,0  c0.6,0,1.2,0,1.9,0c-0.5,0.5-0.9,1-1.5,1.4c-0.4,0.4-0.9,0.7-1.5,0.9C33.6,34.3,32.9,34.1,32.2,33.8z M42.2,35.1  c-1.5,0.8-4.4,0.5-7.5-0.4c0.5-0.2,0.9-0.4,1.4-0.6c0.9-0.5,1.7-1.1,2.4-1.8c0.5,0,0.9-0.1,1.3-0.1c-0.4,0.5-0.8,1-1.3,1.4  c-0.8,0.7-1.7,1.3-2.8,1.4c1.1,0.1,2.2-0.4,3.1-1c0.8-0.5,1.4-1.1,2.1-1.8c0.2,0,0.5,0,0.7,0.1c0.5,0.1,1,0.2,1.4,0.4c0,0,0,0,0,0  C43.4,34.2,42.7,34.8,42.2,35.1z"></path></svg>